<svg width="150" height="110" viewBox="0 0 150 110" fill="none" xmlns="http://www.w3.org/2000/svg">
    <path d="M90.6774 10.6903L28.0793 21.7281C27.4832 21.8332 27.0852 22.4016 27.1903 22.9976L38.9893 89.9129C39.0944 90.509 39.6628 90.907 40.2589 90.8019L102.857 79.7641C103.453 79.659 103.851 79.0906 103.746 78.4946L91.947 11.5793C91.8419 10.9832 91.2735 10.5852 90.6774 10.6903Z" fill="#F2F3F7"/>
    <path d="M82.8669 23.1957L39.6958 30.808L40.457 35.1251L83.6281 27.5128L82.8669 23.1957Z" fill="#DADCE0"/>
    <path d="M84.3894 31.83L41.2183 39.4423L41.9795 43.7594L85.1506 36.1471L84.3894 31.83Z" fill="#DADCE0"/>
    <path d="M75.1193 42.3672L42.7408 48.0764L43.5021 52.3935L75.8805 46.6843L75.1193 42.3672Z" fill="#DADCE0"/>
    <path d="M71.2454 51.9532L44.2634 56.7109L45.0247 61.028L72.0066 56.2703L71.2454 51.9532Z" fill="#DADCE0"/>
    <path d="M74.2902 69.2215L47.3082 73.9792L48.0694 78.2963L75.0514 73.5386L74.2902 69.2215Z" fill="#DADCE0"/>
    <path d="M88.9569 57.7328L45.7858 65.3451L46.547 69.6622L89.7181 62.0499L88.9569 57.7328Z" fill="#DADCE0"/>
    <path fill-rule="evenodd" clip-rule="evenodd" d="M103 59.4995C91.96 59.4995 83 68.4595 83 79.4995C83 90.5395 91.96 99.5 103 99.5C114.04 99.5 123 90.5395 123 79.4995C123 68.4595 114.04 59.4995 103 59.4995Z" fill="#DADCE0"/>
    <path fill-rule="evenodd" clip-rule="evenodd" d="M106.5 81.5H105.71L105.43 81.23C106.41 80.09 107 78.61 107 77C107 73.41 104.09 70.5 100.5 70.5C96.91 70.5 94 73.41 94 77C94 80.59 96.91 83.5 100.5 83.5C102.11 83.5 103.59 82.91 104.73 81.93L105 82.21V83L110 87.99L111.49 86.5L106.5 81.5V81.5ZM100.5 81.5C98.01 81.5 96 79.49 96 77C96 74.51 98.01 72.5 100.5 72.5C102.99 72.5 105 74.51 105 77C105 79.49 102.99 81.5 100.5 81.5V81.5Z" fill="white"/>
</svg>
